<svg width="20" height="20" viewBox="0 0 20 20" fill="none" xmlns="http://www.w3.org/2000/svg">
<path d="M17.0711 2.92895C15.1823 1.0402 12.6711 0 10 0C7.32891 0 4.81766 1.0402 2.92891 2.92895C1.04016 4.8177 0 7.32891 0 10C0 12.6711 1.04016 15.1823 2.92891 17.0711C4.81766 18.9598 7.32891 20 10 20C12.6711 20 15.1823 18.9598 17.0711 17.0711C18.9598 15.1823 20 12.6711 20 10C20 7.32891 18.9598 4.81766 17.0711 2.92895ZM10 18.0372C5.56824 18.0372 1.96281 14.4317 1.96281 10C1.96281 9.99273 1.96305 9.98555 1.96309 9.97836C1.96309 9.97652 1.96281 9.97477 1.96281 9.97293C1.96281 9.96984 1.9632 9.96688 1.96328 9.96383C1.98277 5.5852 5.52133 2.02281 9.89078 1.96422C9.89992 1.96379 9.90898 1.96285 9.91824 1.96285C9.92379 1.96285 9.92918 1.96352 9.93469 1.96367C9.95648 1.96352 9.9782 1.96285 10 1.96285C14.4318 1.96285 18.0372 5.56832 18.0372 10C18.0372 14.4318 14.4318 18.0372 10 18.0372Z" fill="white"/>
<path d="M16.105 10.4828C15.7782 10.4828 15.5132 10.2179 15.5132 9.89109C15.5132 9.56429 15.7782 9.29937 16.105 9.29937H16.8182C16.4832 6.01515 13.8197 3.4098 10.5099 3.16519V3.78609C10.5099 4.11289 10.245 4.37781 9.91821 4.37781C9.59141 4.37781 9.32649 4.11289 9.32649 3.78609V3.17933C6.06571 3.49886 3.46833 6.113 3.17446 9.38113H3.81321C4.14001 9.38113 4.40493 9.64605 4.40493 9.97285C4.40493 10.2996 4.14001 10.5646 3.81321 10.5646H3.16962C3.44169 13.8853 6.09114 16.5429 9.40829 16.8279V16.0778C9.40829 15.751 9.67321 15.4861 10 15.4861C10.3268 15.4861 10.5917 15.751 10.5917 16.0778V16.8279C13.936 16.5405 16.6016 13.8416 16.8365 10.4828H16.105ZM12.3953 8.44148L10.4184 10.4184C10.3635 10.4733 10.2983 10.5169 10.2265 10.5467C10.1547 10.5764 10.0778 10.5917 10 10.5917C9.92234 10.5917 9.8454 10.5764 9.77361 10.5467C9.70182 10.5169 9.63659 10.4733 9.58165 10.4184L6.14052 6.97726C5.90942 6.74621 5.90942 6.37156 6.14052 6.14047C6.37157 5.90937 6.74622 5.90937 6.97731 6.14047L10.0001 9.1632L11.5586 7.60468C11.7897 7.37359 12.1643 7.37359 12.3954 7.60468C12.6264 7.83574 12.6264 8.21043 12.3953 8.44148Z" fill="white"/>
</svg>
