<svg width="24" height="20" viewBox="0 0 24 20" fill="none" xmlns="http://www.w3.org/2000/svg">
<path fill-rule="evenodd" clip-rule="evenodd" d="M13.6266 19.1467C8.95224 21.1776 2.56508 19.5772 0.588832 14.3429C-0.846007 10.5437 0.399926 5.86483 3.68867 3.69971C3.75242 4.21055 4.08991 4.62503 4.54976 4.74678L5.6846 5.04624L5.54772 6.8746C5.51069 7.36368 5.7296 7.82323 6.11491 8.06725C6.49881 8.31127 6.97084 8.28744 7.33225 8.0056L9.43833 6.37101L11.543 8.0056C11.9058 8.28744 12.376 8.31127 12.7613 8.06725C13.1452 7.82323 13.3646 7.36368 13.3275 6.8746L13.1907 5.04624L14.3255 4.74678C14.7853 4.62503 15.1228 4.21055 15.1866 3.69816C16.0317 4.25459 16.7424 4.97733 17.3058 5.80836C13.8418 6.16791 11.13 9.39202 11.13 13.3145C11.13 15.6646 12.1027 17.7634 13.6266 19.1467ZM24 13.315C24 16.9966 21.2827 20 17.9531 20C14.6222 20 11.9049 16.9966 11.9049 13.315C11.9049 9.63345 14.6222 6.63161 17.9531 6.63161C21.2827 6.63109 24 9.63293 24 13.315ZM22.5183 13.315C22.5183 10.5349 20.4666 8.26879 17.9527 8.26879C15.4374 8.26879 13.3857 10.5349 13.3857 13.315C13.3857 16.0951 15.4374 18.3613 17.9527 18.3613C20.467 18.3613 22.5183 16.0951 22.5183 13.315ZM19.8225 12.8876H18.3399V10.4541C18.3399 10.2179 18.166 10.0267 17.9531 10.0267C17.7394 10.0267 17.565 10.2179 17.565 10.4541V13.315C17.565 13.5513 17.7389 13.7425 17.9531 13.7425H19.8225C20.0353 13.7425 20.2092 13.5513 20.2092 13.315C20.2092 13.0783 20.0349 12.8876 19.8225 12.8876ZM4.73069 3.9142L6.20819 4.30485C6.3835 4.35199 6.50069 4.5297 6.48569 4.72761L6.31834 6.94506C6.30756 7.10359 6.37553 7.24607 6.49928 7.32534C6.62397 7.40461 6.77022 7.39735 6.8874 7.30461L9.22974 5.48662C9.35724 5.38818 9.51802 5.38818 9.64552 5.48662L11.9879 7.30461C12.1046 7.39735 12.2508 7.40461 12.376 7.32534C12.5007 7.24607 12.5686 7.10359 12.5569 6.94506L12.391 4.72761C12.375 4.52918 12.4918 4.35148 12.6675 4.30485L14.145 3.9142C14.3007 3.87327 14.4094 3.73183 14.4225 3.55568C14.4347 3.38108 14.3466 3.22255 14.198 3.15468C13.05 2.63606 11.708 2.39411 10.1907 2.53348L10.0285 0.221745C10.0191 0.0968838 9.9263 0 9.81193 0H9.0638C8.94943 0 8.85662 0.0968838 8.84724 0.221745L8.68505 2.53348C7.16772 2.39411 5.82569 2.63606 4.67772 3.15468C4.52913 3.22203 4.44101 3.37953 4.45319 3.55568C4.46632 3.73235 4.57507 3.87327 4.73069 3.9142Z" fill="#FBF7F7"/>
</svg>
