<svg width="38" height="39" viewBox="0 0 38 39" fill="none" xmlns="http://www.w3.org/2000/svg">
<g clip-path="url(#clip0_1_51)">
<path d="M36.708 2.65201C36.252 2.41801 35.72 2.57401 35.34 2.88601L32.224 6.24001L31.768 5.85001C28.348 2.41801 23.788 0.546005 19 0.546005C14.06 0.546005 9.424 2.49601 5.928 6.08401C2.432 9.67201 0.531998 14.43 0.531998 19.5C0.531998 24.57 2.432 29.328 5.928 32.916C9.424 36.504 14.06 38.454 19 38.454C23.56 38.454 27.968 36.738 31.388 33.54C31.464 33.462 31.464 33.384 31.464 33.306C31.464 33.228 31.464 33.15 31.388 33.072L28.348 29.952C28.196 29.796 28.044 29.796 27.968 29.952C25.536 32.214 22.344 33.384 19.076 33.384C15.428 33.384 12.008 31.902 9.5 29.328C6.992 26.754 5.548 23.244 5.548 19.656C5.548 15.912 6.916 12.402 9.5 9.75001C12.008 7.02001 15.352 5.61601 19 5.61601H19.076C22.496 5.61601 25.688 6.94201 28.196 9.36001L28.652 9.82801L25.08 13.572C24.7 13.962 24.624 14.43 24.852 14.976C25.08 15.444 25.46 15.756 25.992 15.756H36.328C37.012 15.756 37.544 15.21 37.544 14.508V3.82201C37.468 3.35401 37.164 2.88601 36.708 2.65201Z" fill="white"/>
</g>
<defs>
<clipPath id="clip0_1_51">
<rect width="38" height="39" fill="white"/>
</clipPath>
</defs>
</svg>
