<svg width="38" height="39" viewBox="0 0 38 39" fill="none" xmlns="http://www.w3.org/2000/svg">
<g clip-path="url(#clip0_1_53)">
<path d="M36.5222 25.2417L33.1444 22.1L32.8278 21.775L32.9333 21.3417C33.0389 20.6917 33.0389 20.0417 33.0389 19.3917C33.0389 18.7417 33.0389 18.0917 32.9333 17.4417L32.8278 17.0083L33.1444 16.6833L36.5222 13.5417C36.8389 13.2167 36.9444 12.7833 36.8389 12.4583C36.5222 11.5917 36.1 10.725 35.6778 9.85834L35.3611 9.20834C34.8333 8.34167 34.3056 7.58334 33.7778 6.825C33.5667 6.60834 33.3556 6.5 33.0389 6.5H32.7222L28.3944 7.90834L27.9722 8.01667L27.6556 7.8C26.8111 7.15 25.65 6.39167 24.3833 5.85L24.0667 5.74167L23.9611 5.30834L22.9056 1.08334C22.8 0.650004 22.4833 0.325004 22.1667 0.325004C21.1111 0.108337 20.0556 0.108337 19 0.108337C17.9444 0.108337 16.8889 0.216671 15.8333 0.325004C15.4111 0.433337 15.0944 0.650004 15.0944 1.08334L14.1444 5.63334L14.0389 6.06667L13.6167 6.175C12.4556 6.60834 11.4 7.25834 10.45 8.125L10.1333 8.34167L9.71111 8.23334L5.48889 6.825H5.17222C4.85555 6.825 4.64444 6.93334 4.43333 7.15C3.8 7.90834 3.27222 8.66667 2.74444 9.53334L2.42778 10.075C2.00555 10.9417 1.58333 11.8083 1.26666 12.675C1.16111 13 1.26666 13.4333 1.58333 13.7583L4.96111 16.9L5.27778 17.225L5.17222 17.6583C5.06666 18.3083 5.06666 18.9583 5.06666 19.6083C5.06666 20.2583 5.06666 20.9083 5.17222 21.5583L5.27778 21.9917L4.96111 22.3167L1.58333 25.4583C1.26666 25.7833 1.16111 26.2167 1.26666 26.5417C1.58333 27.4083 2.00555 28.275 2.42778 29.1417L2.74444 29.7917C3.16666 30.55 3.8 31.4167 4.32778 32.175C4.53889 32.3917 4.75 32.5 5.06666 32.5H5.38333L9.71111 31.0917L10.1333 30.9833L10.45 31.2C11.4 31.9583 12.5611 32.6083 13.6167 33.15L14.0389 33.2583L14.1444 33.6917L15.0944 38.2417C15.2 38.675 15.5167 38.8917 15.9389 39C16.9944 39.2167 17.9444 39.2167 19 39.2167C20.0556 39.2167 21.1111 39.1083 22.1667 39C22.5889 38.8917 22.9056 38.5667 23.0111 38.2417L23.9611 33.6917L24.0667 33.2583L24.3833 33.15C25.65 32.6083 26.7056 31.9583 27.6556 31.2L27.9722 30.9833L28.3944 31.0917L32.7222 32.5H33.0389C33.3556 32.5 33.5667 32.3917 33.7778 32.175C34.4111 31.4167 34.9389 30.6583 35.3611 29.7917L35.6778 29.1417C36.1 28.275 36.5222 27.4083 36.8389 26.5417C36.9444 25.8917 36.7333 25.4583 36.5222 25.2417ZM23.8556 24.4833C22.5889 25.7833 20.7944 26.5417 19 26.5417C17.2056 26.5417 15.4111 25.7833 14.1444 24.4833C12.8778 23.1833 12.1389 21.3417 12.1389 19.3917C12.1389 17.55 12.8778 15.7083 14.1444 14.4083C15.4111 13 17.2056 12.35 19 12.35C20.7944 12.35 22.5889 13.1083 23.8556 14.4083C25.1222 15.7083 25.8611 17.55 25.8611 19.3917C25.9667 21.3417 25.2278 23.1833 23.8556 24.4833Z" fill="white"/>
</g>
<defs>
<clipPath id="clip0_1_53">
<rect width="38" height="39" fill="white"/>
</clipPath>
</defs>
</svg>
