<svg width="20" height="20" viewBox="0 0 20 20" fill="none" xmlns="http://www.w3.org/2000/svg">
<g clip-path="url(#clip0_3_6)">
<path d="M3.6207 8.4375C3.86406 8.68125 4.26094 8.68125 4.5043 8.4375L5.3125 7.62929C5.55625 7.38593 5.55625 6.98906 5.3125 6.7457L4.5043 5.9375H15.625C16.659 5.9375 17.5 6.77851 17.5 7.8125C17.5 8.32929 17.9207 8.75 18.4375 8.75H19.0625C19.5793 8.75 20 8.32929 20 7.8125C20 5.4 18.0375 3.4375 15.625 3.4375H4.5043L5.3125 2.62929C5.55625 2.38593 5.55625 1.98906 5.3125 1.7457L4.5043 0.937497C4.26094 0.693747 3.86406 0.693747 3.6207 0.937497L0.0914059 4.4664C0.032869 4.52509 -3.8147e-06 4.6046 -3.8147e-06 4.6875C-3.8147e-06 4.77039 0.032869 4.8499 0.0914059 4.90859L3.6207 8.4375ZM16.3793 11.5625C16.1359 11.3187 15.7395 11.3187 15.4957 11.5625L14.6875 12.3707C14.4433 12.6149 14.4429 13.0097 14.6875 13.2543L15.4957 14.0625H4.375C3.34102 14.0625 2.5 13.2215 2.5 12.1875C2.5 11.6707 2.0793 11.25 1.5625 11.25H0.9375C0.420703 11.25 -3.73041e-07 11.6707 -3.73041e-07 12.1875C-3.73041e-07 14.6 1.9625 16.5625 4.375 16.5625H15.4957L14.6875 17.3707C14.4433 17.6149 14.4429 18.0097 14.6875 18.2543L15.4957 19.0625C15.7395 19.3063 16.1355 19.3062 16.3793 19.0625L19.9086 15.5336C19.9671 15.4749 20 15.3954 20 15.3125C20 15.2296 19.9671 15.1501 19.9086 15.0914L16.3793 11.5625Z" fill="white"/>
</g>
<defs>
<clipPath id="clip0_3_6">
<rect width="20" height="20" fill="white"/>
</clipPath>
</defs>
</svg>
